<?xml version="1.0" encoding="utf-8"?>
<!-- Generator: Adobe Illustrator 25.3.1, SVG Export Plug-In . SVG Version: 6.00 Build 0)  -->
<svg version="1.1" id="Layer_1" xmlns="http://www.w3.org/2000/svg" xmlns:xlink="http://www.w3.org/1999/xlink" x="0px" y="0px"
	 viewBox="0 0 98.4 104.5" style="enable-background:new 0 0 98.4 104.5;" xml:space="preserve">
<style type="text/css">
	.st0{fill:#FFFFFF;stroke:#000000;stroke-width:6;stroke-linecap:round;stroke-linejoin:round;stroke-miterlimit:10;}
	.st1{fill:#DED2C1;stroke:#000000;stroke-width:6;stroke-linecap:round;stroke-linejoin:round;stroke-miterlimit:10;}
	.st2{fill:#7A4243;stroke:#000000;stroke-width:6;stroke-linecap:round;stroke-linejoin:round;stroke-miterlimit:10;}
	.st3{fill:#814254;stroke:#000000;stroke-width:6;stroke-linecap:round;stroke-linejoin:round;stroke-miterlimit:10;}
	.st4{fill:#824152;stroke:#000000;stroke-width:6;stroke-linecap:round;stroke-linejoin:round;stroke-miterlimit:10;}
	.st5{fill:#894C54;stroke:#000000;stroke-width:6;stroke-linecap:round;stroke-linejoin:round;stroke-miterlimit:10;}
	.st6{fill:#727F84;stroke:#000000;stroke-width:6;stroke-linecap:round;stroke-linejoin:round;stroke-miterlimit:10;}
	.st7{fill:#FFFEFE;stroke:#000000;stroke-width:6;stroke-linecap:round;stroke-linejoin:round;stroke-miterlimit:10;}
	.st8{fill:#F5875C;stroke:#000000;stroke-width:6;stroke-linecap:round;stroke-linejoin:round;stroke-miterlimit:10;}
	.st9{fill:#F8B698;stroke:#000000;stroke-width:6;stroke-linecap:round;stroke-linejoin:round;stroke-miterlimit:10;}
	.st10{fill:#89352F;stroke:#000000;stroke-width:6;stroke-linecap:round;stroke-linejoin:round;stroke-miterlimit:10;}
	.st11{fill:#8B3531;stroke:#000000;stroke-width:6;stroke-linecap:round;stroke-linejoin:round;stroke-miterlimit:10;}
	.st12{fill:#807B73;stroke:#000000;stroke-width:6;stroke-linecap:round;stroke-linejoin:round;stroke-miterlimit:10;}
	.st13{fill:#8D4048;stroke:#000000;stroke-width:6;stroke-linecap:round;stroke-linejoin:round;stroke-miterlimit:10;}
	.st14{fill:#F4875C;stroke:#000000;stroke-width:6;stroke-linecap:round;stroke-linejoin:round;stroke-miterlimit:10;}
	.st15{fill:#E8606F;stroke:#000000;stroke-width:6;stroke-linecap:round;stroke-linejoin:round;stroke-miterlimit:10;}
	.st16{fill:#8D3F49;stroke:#000000;stroke-width:6;stroke-linecap:round;stroke-linejoin:round;stroke-miterlimit:10;}
	.st17{fill:#E8606E;stroke:#000000;stroke-width:6;stroke-linecap:round;stroke-linejoin:round;stroke-miterlimit:10;}
	.st18{fill:#753F46;stroke:#000000;stroke-width:6;stroke-linecap:round;stroke-linejoin:round;stroke-miterlimit:10;}
	.st19{fill:#8C352F;stroke:#000000;stroke-width:6;stroke-linecap:round;stroke-linejoin:round;stroke-miterlimit:10;}
	.st20{fill:#E0D5C3;stroke:#000000;stroke-width:6;stroke-linecap:round;stroke-linejoin:round;stroke-miterlimit:10;}
	.st21{fill:#827B70;stroke:#000000;stroke-width:6;stroke-linecap:round;stroke-linejoin:round;stroke-miterlimit:10;}
	.st22{fill:#E0D4C3;stroke:#000000;stroke-width:6;stroke-linecap:round;stroke-linejoin:round;stroke-miterlimit:10;}
	.st23{fill:#F6956B;stroke:#000000;stroke-width:6;stroke-linecap:round;stroke-linejoin:round;stroke-miterlimit:10;}
	.st24{fill:#FFFDFC;stroke:#000000;stroke-width:6;stroke-linecap:round;stroke-linejoin:round;stroke-miterlimit:10;}
	.st25{fill:#F5875B;stroke:#000000;stroke-width:6;stroke-linecap:round;stroke-linejoin:round;stroke-miterlimit:10;}
	.st26{fill:#FBBD85;stroke:#000000;stroke-width:6;stroke-linecap:round;stroke-linejoin:round;stroke-miterlimit:10;}
	.st27{fill:#F49484;stroke:#000000;stroke-width:6;stroke-linecap:round;stroke-linejoin:round;stroke-miterlimit:10;}
	.st28{fill:#D46767;stroke:#000000;stroke-width:6;stroke-linecap:round;stroke-linejoin:round;stroke-miterlimit:10;}
	.st29{fill:#79465F;stroke:#000000;stroke-width:6;stroke-linecap:round;stroke-linejoin:round;stroke-miterlimit:10;}
	.st30{fill:#734C66;stroke:#000000;stroke-width:6;stroke-linecap:round;stroke-linejoin:round;stroke-miterlimit:10;}
	.st31{fill:#D6D4D6;stroke:#000000;stroke-width:6;stroke-linecap:round;stroke-linejoin:round;stroke-miterlimit:10;}
	.st32{fill:#574833;stroke:#000000;stroke-width:6;stroke-linecap:round;stroke-linejoin:round;stroke-miterlimit:10;}
	.st33{fill:#4C483F;stroke:#000000;stroke-width:6;stroke-linecap:round;stroke-linejoin:round;stroke-miterlimit:10;}
	.st34{fill:#E9606E;stroke:#000000;stroke-width:6;stroke-linecap:round;stroke-linejoin:round;stroke-miterlimit:10;}
	.st35{fill:#8B3F59;stroke:#000000;stroke-width:6;stroke-linecap:round;stroke-linejoin:round;stroke-miterlimit:10;}
	.st36{fill:#81765D;stroke:#000000;stroke-width:6;stroke-linecap:round;stroke-linejoin:round;stroke-miterlimit:10;}
	.st37{fill:#FFFFFF;}
	.st38{fill:#DED2C1;}
	.st39{fill:#7A4243;}
	.st40{fill:#814254;}
	.st41{fill:#824152;}
	.st42{fill:#894C54;}
	.st43{fill:#727F84;}
	.st44{fill:#FFFEFE;}
	.st45{fill:#F5875C;}
	.st46{fill:#F8B698;}
	.st47{fill:#89352F;}
	.st48{fill:#8B3531;}
	.st49{fill:#807B73;}
	.st50{fill:#8D4048;}
	.st51{fill:#F4875C;}
	.st52{fill:#E8606F;}
	.st53{fill:#8D3F49;}
	.st54{fill:#E8606E;}
	.st55{fill:#753F46;}
	.st56{fill:#8C352F;}
	.st57{fill:#E0D5C3;}
	.st58{fill:#827B70;}
	.st59{fill:#E0D4C3;}
	.st60{fill:#F6956B;}
	.st61{fill:#FFFDFC;}
	.st62{fill:#F5875B;}
	.st63{fill:#FBBD85;}
	.st64{fill:#F49484;}
	.st65{fill:#D46767;}
	.st66{fill:#79465F;}
	.st67{fill:#734C66;}
	.st68{fill:#D6D4D6;}
	.st69{fill:#574833;}
	.st70{fill:#4C483F;}
	.st71{fill:#E9606E;}
	.st72{fill:#8B3F59;}
	.st73{fill:#81765D;}
</style>
<g>
	<rect x="17.1" y="25" class="st0" width="63.6" height="50.8"/>
	<g>
		<path class="st1" d="M11.9,7.7c1.6-1.4,3.3-1.6,5.4-1.6c21,0,41.9,0,62.9,0c2.3,0,4,0.3,5.4,2.3c2.1,5,1.2,6.6-4,6.6
			c-13.7,0-27.2,0-40.9,0c-8.3,0-16.6,0-24.9,0C10.4,14.8,9.1,12.7,11.9,7.7z"/>
		<path class="st2" d="M40.7,13.9c13.7,0,27.2,0,40.9,0c5.2,0,5.4-0.2,4-5.5c1.2,2.8,2.4,5.5,3.5,8.3c0.3,0.7,0.2,1.6,0.2,2.3
			c-2.4,0.9-2.4-1.9-4.2-2.3c-3.5-1.6-7.1-1.2-10.6-0.2c-5.2,0.7-10.6,0.7-15.8,0c-0.5,0-0.9-0.2-1.4-0.3c-3.5-1-7.1-0.3-10.6-0.5
			c-1.9-0.2-3.8,0.3-5.5-0.5C40.7,14.8,40.5,14.4,40.7,13.9z"/>
		<path class="st3" d="M9.3,45.1c-4.7-3.1-5.2-8-4.9-13c0.9-2.9,1.7-6.1,2.6-9c1-2.8,2.1-5.7,2.9-8.5c1.2,0,1.2,0.9,1.4,1.6
			c-0.5,5.5-2.3,10.7-4,16.1c-0.5,4,0.2,7.6,3.1,10.7c0.3,0.7,0.5,1.4,0.2,2.3C10.2,45.6,9.7,45.6,9.3,45.1z"/>
		<path class="st4" d="M94.4,34.4c-0.3,4.9-1.4,9.4-6.9,11.1c-0.3-0.2-0.5-0.5-0.5-1c0-1.4,1-2.3,1.9-3.1c2.6-2.9,3.1-6.2,1.9-9.9
			c-0.7-2.4-1.6-4.9-2.3-7.3c-0.3-1.6-1-3.3,0.3-4.7c0-0.9,0.2-1.7,0.2-2.6C91.3,22.4,93.3,28.3,94.4,34.4z"/>
		<path class="st5" d="M10.7,16c-0.3-0.5-0.5-1-0.7-1.4c0.2-2.4-0.9-5.2,1.9-6.9c-1.7,5.7-1.4,6.2,4.3,6.2c8.1,0,16.3,0,24.4,0.2
			c0,0.2,0,0.3,0,0.7c-0.2,0.2-0.3,0.3-0.5,0.5c-5.5,1.4-11.1,0.2-16.6,0.5c-3.6,0-7.3-0.3-10.9,0.7C11.9,16.5,11.2,16.5,10.7,16z"
			/>
		<path class="st6" d="M9.3,45.1c0.5,0.2,0.9,0.2,1.4,0.3c0.9,0,1.4,0.5,1.7,1.2c1,1.7,0.7,3.8,0.7,5.5c0.2,9.2-0.2,18.4,0.2,27.5
			c0.7,2.6,2.4,3.5,4.9,3.5c20.4,0,40.9,0,61.3,0c1.2,0,2.3-0.2,3.3-0.7c1.2-0.2,2.4-1.2,3.8-0.5c0,0.5,0,1,0,1.6l0,0
			c-0.7,1.2-1.9,1.7-3.1,2.3c-22.2,0-44.5,0-66.7,0c-3.3,0-6.6,0-6.9-4.7C9.7,69.2,10.5,57.2,9.3,45.1z"/>
		<path class="st7" d="M58.3,15.5c5.5,0,11.1-0.2,16.8-0.2c0.2,0.2,0.3,0.3,0.5,0.5c1,5.7,0.9,11.3,0.2,17c-0.3,0.5-0.7,0.9-1,1
			c-5.7,1-11.3,1.9-16.8-0.7C56.8,27.2,56.1,21.4,58.3,15.5z"/>
		<path class="st8" d="M88.8,19.5c1.2,4,2.3,8.1,3.5,12.1c0.3,2.1-1.2,2.8-2.6,2.9c-3.1,0.2-6.2,0.7-9.2-0.5
			c-0.7-1.2-0.7-2.9-2.9-3.1c-1.6-0.2-1.9-1.9-1.9-3.3c0-2.6,0.2-5.2,0-7.6c-0.3-3.1,1-4.5,4-4.7c2.4,0.2,4.7-0.3,7.1,0.3
			C88,16.2,87.8,18.1,88.8,19.5z"/>
		<path class="st9" d="M58.3,15.5c0,5.9,0,11.6,0.2,17.5c-0.2,0.3-0.7,0.7-1,0.9c-5.5,0.3-11.1,0.7-16.5-0.2c-1-0.7-1.4-1.7-1-2.9
			c0.2-0.3,0.3-0.7,0.9-1c0.3-0.2,0.9,0,1.2,0.2c4.2,2.6,8.8,0.9,13.2,1c0.7,0,0.9-1,0.9-1.9c0.2-4-0.5-8.1,0.3-12.1
			c0.2-0.5,0.3-0.9,0.5-1.2c0.2-0.2,0.3-0.3,0.5-0.3S58,15.3,58.3,15.5z"/>
		<path class="st10" d="M40.5,14.6c5.5,0.3,11.3-0.9,16.8,0.7v0.2c-2.1,1.7-4.5,0.9-6.9,1c-2.9,0.2-5.7,0.2-8.7-0.2
			c-0.5-0.2-0.9-0.3-1.2-0.5C40.3,15.3,40.3,14.9,40.5,14.6L40.5,14.6z"/>
		<path class="st11" d="M86.6,15.1c-2.6,0-5.2,0.2-7.6,0.2c-1.2,0.2-2.4,0.7-3.6,0l-0.2-0.2C79,14.1,82.8,14.1,86.6,15.1z"/>
		<path class="st12" d="M86.6,82c-0.7,0.5-1.6,1-2.3,1.6c-0.7-0.3-1.2-0.9-1-1.6c0.9-2.8,1-5.7,1-8.7c0-7.3,0-14.7,0-22
			c0-1.7-0.2-3.6,1-5c0.5-0.5,1.2-0.7,1.9-0.2C86.9,57.9,88,70,86.6,82z"/>
		<path class="st13" d="M87.1,46c-0.5,0.2-1,0.2-1.4,0.3c-2.8,1.9-5.4,0.9-7.6-0.5c-1.7-1-3.5-1.4-5.4-1.4c-0.5-0.2-0.9-0.7-1-1.2
			c0.3-2.3,1.2-4.2,3.6-5c0.7,0,1.2,0.3,1.7,0.9c2.1,2.9,4.9,4.3,8.3,4.3c0.7,0,1.4,0.3,1.9,1c0,0.3,0.2,0.9,0.2,1.2
			C87.4,45.6,87.3,45.8,87.1,46z"/>
		<path class="st14" d="M10.7,16c0.2-0.2,0.5-0.3,0.7-0.5c3.6-1.2,7.3-0.2,10.9-0.5c0.5,0,0.9,0,1.4,0.2c0.9,0.7,1,1.7,1,2.8
			c-0.3,4.3-0.2,8.7-0.3,12.8c0,1-0.2,2.1-1,2.8c-4.9,1.9-10,1-15.1,0.7c-1,0-1.7-1-2.3-1.9C7.6,26.9,9.1,21.5,10.7,16z"/>
		<path class="st15" d="M6,32.3c5.7,1.4,11.4,0.3,17.2,0.7c0.5,0,0.9,0.2,1,0.5c0.9,1.7,0.7,3.3,0.2,5c-1.7,2.6-3.1,5.5-6.6,6.6
			c-2.8,0.9-5.5,0.9-8-1.4C5.8,40.8,5.5,36.8,6,32.3z"/>
		<path class="st16" d="M9.8,43.7c6.8,1.9,8.5,1.2,13.5-5.4c1.4,0.3,1.7,1.4,1.7,2.6c0,1.2-0.9,1.9-1.7,2.8c-0.3,0.3-0.9,0.9-1.2,1
			c-0.5,0.2-1.2,0.7-1.7,1.2c-2.9,1.6-6.1,2.4-9,0.2c-0.2-0.2-0.5-0.5-0.7-0.7C10.4,44.9,10,44.2,9.8,43.7z"/>
		<path class="st17" d="M87.3,44.2c-5.5,1.4-9.4-1-12.1-5.7c-1.9-1.9-1.6-3.6-0.2-5.5h0.2c1.4-1.4,2.9-1.6,4.3-0.2c2.9,0,6.1,0,9,0
			c1.4,0,2.8,0.2,3.5-1.4C93.7,37.6,92.3,41.1,87.3,44.2z"/>
		<path class="st18" d="M23.5,15.5c-0.2-0.2-0.5-0.2-0.7-0.3c-0.2-0.2-0.3-0.3-0.2-0.3c0.2-0.2,0.2-0.2,0.3-0.2c5.9,0,11.8,0,17.7,0
			c0,0.2,0,0.5,0,0.7c-0.5,0.9-1.2,1.4-2.3,1.4c-4.3,0.3-8.7,0.3-13,0C24.6,16.5,24,16,23.5,15.5z"/>
		<path class="st19" d="M22.8,14.6c0,0.2,0,0.3-0.2,0.5c-3.8,0-7.6,0.2-11.3,0.2C15.2,13.6,19,14.9,22.8,14.6z"/>
		<path class="st20" d="M11.2,46.1c3.3,0.2,6.4,0.2,9.4-1.7c1.4,0.3,1.9,1.4,1.9,2.6c0,4.7,0.5,9.4-0.3,14c-0.5,1-1.6,1.6-2.1,2.6
			c-1.6,3.5,0,6.2,3.6,6.2c15.8,0,31.7,0,47.5,0c1.7,0,3.5,0,4-2.1c0.5-2.4,0.5-4.7-2.1-5.9c-0.3-0.2-0.7-0.5-1-1
			c-0.9-5.2-0.3-10.6-0.3-15.8c0.2-0.7,0.5-1.4,1.4-1.6c1.4-1.4,2.4-2.3,4.3-0.2c2.1,2.4,5.4,2.6,8.3,2.6c0,10.2,0,20.6,0,30.8
			c0,2.3-0.2,4.3-2.3,5.7c-1.4,1-2.9,0.9-4.3,0.9c-20.4,0-40.7,0-61.2,0c-2.6,0-5.5,0.5-6.6-2.9C11.2,69,11.2,57.6,11.2,46.1z"/>
		<path class="st21" d="M11.2,80.4c1.2,2.3,3.5,2.3,5.7,2.3c22.2,0,44.4,0,66.5,0c0.3,0.3,0.5,0.5,0.9,0.9c-1.7,0.5-3.5,0.9-5.2,0.9
			c-20.3,0-40.5,0-61,0c-1.9,0-3.6-0.2-5.2-1C11.7,82.9,10.4,82.2,11.2,80.4z"/>
		<path class="st22" d="M75,33c0,1.9,0,3.6,0.2,5.5c-0.7,1.7-1.7,3.3-3.1,4.7c-3.3,4-10.4,3.3-13.3-1.4c-0.7-1-1.2-2.3-1.4-3.5
			c0-1.7-0.5-3.6,0.9-5.2c0.2,0,0.3,0,0.5,0C64.1,33,69.4,33,75,33z"/>
		<path class="st23" d="M79.7,32.8c-1.4,0-2.9,0-4.3,0.2c0-5.9,0-11.6,0-17.5c1.2,0,2.4,0,3.6,0c-2.4,0.9-3.3,2.4-2.9,5
			c0.2,1.6,0.2,3.1,0,4.5c-0.7,3.8,1,5.4,4.9,4.9c1-0.2,2.9-0.7,2.9,1.2c0,1.6-1.7,0.9-2.8,1.2C80.5,32.4,80.2,32.6,79.7,32.8z"/>
		<path class="st24" d="M23.5,15.5c5.7,0,11.4-0.2,17-0.2v0.2c1.9,4.7,1.7,9.5,0.2,14.4c0,1,0,2.1,0,3.1c-0.2,0.2-0.3,0.3-0.5,0.5
			c-5.5,1.4-11.1,2.1-16.5-0.5h-0.3C23.3,27.1,23.3,21.4,23.5,15.5z"/>
		<path class="st25" d="M57.3,16.2c0,4.5,0,9,0,13.3c-0.2,0.3-0.5,0.7-0.9,0.7c-5,0.7-10.2,1.6-15.1-0.5v-0.2
			c-0.9-4-0.2-8.1-0.3-12.1c0-0.9,0.2-1.9,1.4-1.9C47.3,16,52.3,15.1,57.3,16.2z"/>
		<path class="st26" d="M41.4,29.8c5.4,0,10.6-0.2,15.9-0.2c0,1.6-0.7,2.4-2.3,2.4c-3.6,0-7.4,0-11.1,0
			C42.4,32.1,41.5,31.4,41.4,29.8z"/>
		<path class="st27" d="M57.3,16.2c-4.2,0-8.3,0-12.5-0.2c-2.6-0.2-3.6,0.7-3.6,3.5c0.2,3.5,0,6.8,0,10.2c-0.2,0-0.5,0-0.7,0
			c0-4.9,0-9.5-0.2-14.4c5.7,0,11.3,0,17,0C57.5,15.6,57.3,16,57.3,16.2z"/>
		<path class="st28" d="M58,33c0,1.9,0.2,3.8,0.2,5.5c-0.3,0.2-0.7,0-1-0.2c-1.7-4-5.2-2.8-8.3-3.1c-3.6-0.3-6.1,0.7-7.3,4.2
			c-0.7,0.3-1.2,0.2-1.7-0.2c-1.2-2.3-0.9-4.3,0.9-6.2h0.2C46.4,33,52.1,33,58,33z"/>
		<path class="st29" d="M57.5,38.3c0.2,0,0.5,0.2,0.7,0.2C61.5,44.7,65.4,46,72,43c0.3,0.2,0.7,0.5,1,0.7c-0.2,0.5-0.2,0.9-0.3,1.4
			c-0.3,0.5-0.9,0.9-1.4,1.2c-3.5,1.7-6.9,1.6-10.2-0.3c-2.1-1.2-4-1.2-6.1,0c-1.9,1.2-4,1.6-6.2,1.4c-1.4-0.2-2.9-0.2-3.1-2.1
			c1.4-1.7,3.6-0.9,5.2-1.9C54,42.7,55.1,39.5,57.5,38.3z"/>
		<path class="st22" d="M40.5,33c0,2.1,0.2,4.2-0.5,6.2c0.7,1,0.3,2.1-0.3,2.9c-4.3,4-8.3,4.7-12.6,2.3c-1.4-0.7-2.3-1.6-2.4-3.1
			c-0.3-1-0.7-1.9-1.2-2.9c0-1.7,0.2-3.5,0.2-5.4C29.2,33,34.8,33,40.5,33z"/>
		<path class="st30" d="M24.6,41.3c5.4,4.7,9,4.7,14.4,0.2c1-0.5,2.1-0.9,2.6,0.5c-3.3,5.9-10.4,7.1-17,3.1c-0.7-0.5-1.2-1-1.6-1.7
			c0-0.2-0.2-0.3-0.2-0.5C22.8,41.5,24.2,42,24.6,41.3z"/>
		<path class="st31" d="M21.4,61.2c-0.5-5.5,0.9-11.3-0.9-16.8c0.5-0.3,1-0.5,1.6-0.9c1,0.7,1.2,1.6,1.2,2.6c0,4.7,0.3,9.4-0.2,14
			c-0.2,0.5-0.5,0.9-0.9,1C21.8,61.4,21.6,61.2,21.4,61.2z"/>
		<path class="st32" d="M73.6,61.4c2.4-0.3,3.1,0.7,3.3,2.9c0.5,6.9,0.5,6.9-6.6,6.9c-3.3,0-6.6,0-10,0c-12.5,0-25.1,0-37.6,0
			c-1.9,0-4.3,0.3-4.2-2.4c0.2-2.8-2.3-6.8,2.9-7.8v0.3c1,0.3,2.3,0.5,1.6,2.1c-1.9,3.6-1.6,4.7,2.4,4.7c14.7,0,29.3,0,44,0
			c4,0,4.3-0.7,3.1-4.7C72.2,62.6,72.5,61.9,73.6,61.4z"/>
		<path class="st33" d="M23,62.8c-0.5-0.5-1-0.9-1.6-1.4c0.3-0.2,0.5-0.2,0.9-0.3c0.3,0,0.5-0.2,0.9-0.2c0.3-0.3,0.9-0.5,1.2-0.7
			c1-0.5,2.3-0.5,3.3-0.5c13.3,0,26.5,0,39.8,0c1.2,0,2.3,0,3.5,0.5c0.7,0.2,1.4,0.5,1.9,1c0.2,0.2,0.5,0.2,0.7,0.3
			c-0.2,0.5-0.5,0.9-0.7,1.4c-1,1.6-2.8,1.6-4.5,1.7c-13.7,0-27.4,0-40.9,0C25.8,64.5,24,64.3,23,62.8z"/>
		<path class="st34" d="M57.5,38.3c-0.5,3.1-2.8,4.7-5.4,6.1c-6.4,1.2-8.8,0.3-10.9-3.6c-0.3-0.7-0.3-1.2,0.2-1.7
			c0-5.4,0-5.4,5.4-5.4c2.1,0,4.2,0.2,6.1,0C56.6,33.1,58,34.7,57.5,38.3z"/>
		<path class="st35" d="M41.4,39c1.9,5.2,6.1,5.7,10.7,5.4c-1.9,1.6-4.2,0.5-6.2,0.9c-2.8,0.9-4.3-0.2-4.5-3.1
			c-0.5-0.9-1.4-0.9-2.3-0.9c0.3-0.7,0.7-1.6,1-2.3C40.5,39,40.8,39,41.4,39z"/>
		<path class="st36" d="M23,62.8c16.6,0,33.3,0,49.9,0c3.6,0.3,2.3,3.1,2.3,5c0.2,2.3-1.7,2.1-3.3,2.1c-16.1,0-32.4,0-48.5,0
			c-1.9,0-3.6-0.2-3.5-2.8C20.1,64.8,19.4,62.4,23,62.8z"/>
	</g>
</g>
<g>
	<rect x="17.4" y="25" class="st37" width="63.6" height="50.8"/>
	<g>
		<path class="st38" d="M12.2,7.7c1.6-1.4,3.3-1.6,5.4-1.6c21,0,41.9,0,62.9,0c2.3,0,4,0.3,5.4,2.3c2.1,5,1.2,6.6-4,6.6
			c-13.7,0-27.2,0-40.9,0c-8.3,0-16.6,0-24.9,0C10.6,14.8,9.4,12.7,12.2,7.7z"/>
		<path class="st39" d="M40.9,13.9c13.7,0,27.2,0,40.9,0c5.2,0,5.4-0.2,4-5.5c1.2,2.8,2.4,5.5,3.5,8.3c0.3,0.7,0.2,1.6,0.2,2.3
			C87,19.8,87,17,85.3,16.7c-3.5-1.6-7.1-1.2-10.6-0.2c-5.2,0.7-10.6,0.7-15.8,0c-0.5,0-0.9-0.2-1.4-0.3c-3.5-1-7.1-0.3-10.6-0.5
			c-1.9-0.2-3.8,0.3-5.5-0.5C40.9,14.8,40.7,14.4,40.9,13.9z"/>
		<path class="st40" d="M9.6,45.1c-4.7-3.1-5.2-8-4.9-13c0.9-2.9,1.7-6.1,2.6-9c1-2.8,2.1-5.7,2.9-8.5c1.2,0,1.2,0.9,1.4,1.6
			c-0.5,5.5-2.3,10.7-4,16.1c-0.5,4,0.2,7.6,3.1,10.7c0.3,0.7,0.5,1.4,0.2,2.3C10.4,45.6,9.9,45.6,9.6,45.1z"/>
		<path class="st41" d="M94.6,34.4c-0.3,4.9-1.4,9.4-6.9,11.1c-0.3-0.2-0.5-0.5-0.5-1c0-1.4,1-2.3,1.9-3.1c2.6-2.9,3.1-6.2,1.9-9.9
			c-0.7-2.4-1.6-4.9-2.3-7.3c-0.3-1.6-1-3.3,0.3-4.7c0-0.9,0.2-1.7,0.2-2.6C91.5,22.4,93.6,28.3,94.6,34.4z"/>
		<path class="st42" d="M10.9,16c-0.3-0.5-0.5-1-0.7-1.4c0.2-2.4-0.9-5.2,1.9-6.9c-1.7,5.7-1.4,6.2,4.3,6.2c8.1,0,16.3,0,24.4,0.2
			c0,0.2,0,0.3,0,0.7c-0.2,0.2-0.3,0.3-0.5,0.5c-5.5,1.4-11.1,0.2-16.6,0.5c-3.6,0-7.3-0.3-10.9,0.7C12.2,16.5,11.5,16.5,10.9,16z"
			/>
		<path class="st43" d="M9.6,45.1c0.5,0.2,0.9,0.2,1.4,0.3c0.9,0,1.4,0.5,1.7,1.2c1,1.7,0.7,3.8,0.7,5.5c0.2,9.2-0.2,18.4,0.2,27.5
			c0.7,2.6,2.4,3.5,4.9,3.5c20.4,0,40.9,0,61.3,0c1.2,0,2.3-0.2,3.3-0.7c1.2-0.2,2.4-1.2,3.8-0.5c0,0.5,0,1,0,1.6l0,0
			c-0.7,1.2-1.9,1.7-3.1,2.3c-22.2,0-44.5,0-66.7,0c-3.3,0-6.6,0-6.9-4.7C9.9,69.2,10.8,57.2,9.6,45.1z"/>
		<path class="st44" d="M58.6,15.5c5.5,0,11.1-0.2,16.8-0.2c0.2,0.2,0.3,0.3,0.5,0.5c1,5.7,0.9,11.3,0.2,17c-0.3,0.5-0.7,0.9-1,1
			c-5.7,1-11.3,1.9-16.8-0.7C57,27.2,56.3,21.4,58.6,15.5z"/>
		<path class="st45" d="M89.1,19.5c1.2,4,2.3,8.1,3.5,12.1c0.3,2.1-1.2,2.8-2.6,2.9c-3.1,0.2-6.2,0.7-9.2-0.5
			c-0.7-1.2-0.7-2.9-2.9-3.1c-1.6-0.2-1.9-1.9-1.9-3.3c0-2.6,0.2-5.2,0-7.6c-0.3-3.1,1-4.5,4-4.7c2.4,0.2,4.7-0.3,7.1,0.3
			C88.2,16.2,88,18.1,89.1,19.5z"/>
		<path class="st46" d="M58.6,15.5c0,5.9,0,11.6,0.2,17.5c-0.2,0.3-0.7,0.7-1,0.9c-5.5,0.3-11.1,0.7-16.5-0.2c-1-0.7-1.4-1.7-1-2.9
			c0.2-0.3,0.3-0.7,0.9-1c0.3-0.2,0.9,0,1.2,0.2c4.2,2.6,8.8,0.9,13.2,1c0.7,0,0.9-1,0.9-1.9c0.2-4-0.5-8.1,0.3-12.1
			c0.2-0.5,0.3-0.9,0.5-1.2c0.2-0.2,0.3-0.3,0.5-0.3S58.2,15.3,58.6,15.5z"/>
		<path class="st47" d="M40.7,14.6c5.5,0.3,11.3-0.9,16.8,0.7v0.2c-2.1,1.7-4.5,0.9-6.9,1c-2.9,0.2-5.7,0.2-8.7-0.2
			c-0.5-0.2-0.9-0.3-1.2-0.5C40.6,15.3,40.6,14.9,40.7,14.6L40.7,14.6z"/>
		<path class="st48" d="M86.8,15.1c-2.6,0-5.2,0.2-7.6,0.2c-1.2,0.2-2.4,0.7-3.6,0l-0.2-0.2C79.2,14.1,83,14.1,86.8,15.1z"/>
		<path class="st49" d="M86.8,82c-0.7,0.5-1.6,1-2.3,1.6c-0.7-0.3-1.2-0.9-1-1.6c0.9-2.8,1-5.7,1-8.7c0-7.3,0-14.7,0-22
			c0-1.7-0.2-3.6,1-5c0.5-0.5,1.2-0.7,1.9-0.2C87.2,57.9,88.2,70,86.8,82z"/>
		<path class="st50" d="M87.3,46c-0.5,0.2-1,0.2-1.4,0.3c-2.8,1.9-5.4,0.9-7.6-0.5c-1.7-1-3.5-1.4-5.4-1.4c-0.5-0.2-0.9-0.7-1-1.2
			c0.3-2.3,1.2-4.2,3.6-5c0.7,0,1.2,0.3,1.7,0.9c2.1,2.9,4.9,4.3,8.3,4.3c0.7,0,1.4,0.3,1.9,1c0,0.3,0.2,0.9,0.2,1.2
			C87.7,45.6,87.5,45.8,87.3,46z"/>
		<path class="st51" d="M10.9,16c0.2-0.2,0.5-0.3,0.7-0.5c3.6-1.2,7.3-0.2,10.9-0.5c0.5,0,0.9,0,1.4,0.2c0.9,0.7,1,1.7,1,2.8
			c-0.3,4.3-0.2,8.7-0.3,12.8c0,1-0.2,2.1-1,2.8c-4.9,1.9-10,1-15.1,0.7c-1,0-1.7-1-2.3-1.9C7.8,26.9,9.4,21.5,10.9,16z"/>
		<path class="st52" d="M6.3,32.3c5.7,1.4,11.4,0.3,17.2,0.7c0.5,0,0.9,0.2,1,0.5c0.9,1.7,0.7,3.3,0.2,5c-1.7,2.6-3.1,5.5-6.6,6.6
			c-2.8,0.9-5.5,0.9-8-1.4C6.1,40.8,5.7,36.8,6.3,32.3z"/>
		<path class="st53" d="M10.1,43.7c6.8,1.9,8.5,1.2,13.5-5.4c1.4,0.3,1.7,1.4,1.7,2.6c0,1.2-0.9,1.9-1.7,2.8c-0.3,0.3-0.9,0.9-1.2,1
			c-0.5,0.2-1.2,0.7-1.7,1.2c-2.9,1.6-6.1,2.4-9,0.2c-0.2-0.2-0.5-0.5-0.7-0.7C10.6,44.9,10.2,44.2,10.1,43.7z"/>
		<path class="st54" d="M87.5,44.2c-5.5,1.4-9.4-1-12.1-5.7c-1.9-1.9-1.6-3.6-0.2-5.5h0.2c1.4-1.4,2.9-1.6,4.3-0.2c2.9,0,6.1,0,9,0
			c1.4,0,2.8,0.2,3.5-1.4C93.9,37.6,92.5,41.1,87.5,44.2z"/>
		<path class="st55" d="M23.8,15.5c-0.2-0.2-0.5-0.2-0.7-0.3c-0.2-0.2-0.3-0.3-0.2-0.3c0.2-0.2,0.2-0.2,0.3-0.2c5.9,0,11.8,0,17.7,0
			c0,0.2,0,0.5,0,0.7c-0.5,0.9-1.2,1.4-2.3,1.4c-4.3,0.3-8.7,0.3-13,0C24.8,16.5,24.3,16,23.8,15.5z"/>
		<path class="st56" d="M23.1,14.6c0,0.2,0,0.3-0.2,0.5c-3.8,0-7.6,0.2-11.3,0.2C15.4,13.6,19.3,14.9,23.1,14.6z"/>
		<path class="st57" d="M11.5,46.1c3.3,0.2,6.4,0.2,9.4-1.7c1.4,0.3,1.9,1.4,1.9,2.6c0,4.7,0.5,9.4-0.3,14c-0.5,1-1.6,1.6-2.1,2.6
			c-1.6,3.5,0,6.2,3.6,6.2c15.8,0,31.7,0,47.5,0c1.7,0,3.5,0,4-2.1c0.5-2.4,0.5-4.7-2.1-5.9c-0.3-0.2-0.7-0.5-1-1
			c-0.9-5.2-0.3-10.6-0.3-15.8c0.2-0.7,0.5-1.4,1.4-1.6c1.4-1.4,2.4-2.3,4.3-0.2C79.7,45.8,83,46,86,46c0,10.2,0,20.6,0,30.8
			c0,2.3-0.2,4.3-2.3,5.7c-1.4,1-2.9,0.9-4.3,0.9c-20.4,0-40.7,0-61.2,0c-2.6,0-5.5,0.5-6.6-2.9C11.5,69,11.5,57.6,11.5,46.1z"/>
		<path class="st58" d="M11.5,80.4c1.2,2.3,3.5,2.3,5.7,2.3c22.2,0,44.4,0,66.5,0c0.3,0.3,0.5,0.5,0.9,0.9c-1.7,0.5-3.5,0.9-5.2,0.9
			c-20.3,0-40.5,0-61,0c-1.9,0-3.6-0.2-5.2-1C12,82.9,10.6,82.2,11.5,80.4z"/>
		<path class="st59" d="M75.2,33c0,1.9,0,3.6,0.2,5.5c-0.7,1.7-1.7,3.3-3.1,4.7c-3.3,4-10.4,3.3-13.3-1.4c-0.7-1-1.2-2.3-1.4-3.5
			c0-1.7-0.5-3.6,0.9-5.2c0.2,0,0.3,0,0.5,0C64.3,33,69.7,33,75.2,33z"/>
		<path class="st60" d="M79.9,32.8c-1.4,0-2.9,0-4.3,0.2c0-5.9,0-11.6,0-17.5c1.2,0,2.4,0,3.6,0c-2.4,0.9-3.3,2.4-2.9,5
			c0.2,1.6,0.2,3.1,0,4.5c-0.7,3.8,1,5.4,4.9,4.9c1-0.2,2.9-0.7,2.9,1.2c0,1.6-1.7,0.9-2.8,1.2C80.8,32.4,80.4,32.6,79.9,32.8z"/>
		<path class="st61" d="M23.8,15.5c5.7,0,11.4-0.2,17-0.2v0.2c1.9,4.7,1.7,9.5,0.2,14.4c0,1,0,2.1,0,3.1c-0.2,0.2-0.3,0.3-0.5,0.5
			c-5.5,1.4-11.1,2.1-16.5-0.5h-0.3C23.6,27.1,23.6,21.4,23.8,15.5z"/>
		<path class="st62" d="M57.5,16.2c0,4.5,0,9,0,13.3c-0.2,0.3-0.5,0.7-0.9,0.7c-5,0.7-10.2,1.6-15.1-0.5v-0.2
			c-0.9-4-0.2-8.1-0.3-12.1c0-0.9,0.2-1.9,1.4-1.9C47.5,16,52.5,15.1,57.5,16.2z"/>
		<path class="st63" d="M41.6,29.8c5.4,0,10.6-0.2,15.9-0.2c0,1.6-0.7,2.4-2.3,2.4c-3.6,0-7.4,0-11.1,0
			C42.6,32.1,41.8,31.4,41.6,29.8z"/>
		<path class="st64" d="M57.5,16.2c-4.2,0-8.3,0-12.5-0.2c-2.6-0.2-3.6,0.7-3.6,3.5c0.2,3.5,0,6.8,0,10.2c-0.2,0-0.5,0-0.7,0
			c0-4.9,0-9.5-0.2-14.4c5.7,0,11.3,0,17,0C57.7,15.6,57.5,16,57.5,16.2z"/>
		<path class="st65" d="M58.2,33c0,1.9,0.2,3.8,0.2,5.5c-0.3,0.2-0.7,0-1-0.2c-1.7-4-5.2-2.8-8.3-3.1c-3.6-0.3-6.1,0.7-7.3,4.2
			c-0.7,0.3-1.2,0.2-1.7-0.2c-1.2-2.3-0.9-4.3,0.9-6.2h0.2C46.6,33,52.3,33,58.2,33z"/>
		<path class="st66" d="M57.7,38.3c0.2,0,0.5,0.2,0.7,0.2c3.3,6.2,7.3,7.4,13.9,4.5c0.3,0.2,0.7,0.5,1,0.7c-0.2,0.5-0.2,0.9-0.3,1.4
			c-0.3,0.5-0.9,0.9-1.4,1.2c-3.5,1.7-6.9,1.6-10.2-0.3c-2.1-1.2-4-1.2-6.1,0c-1.9,1.2-4,1.6-6.2,1.4c-1.4-0.2-2.9-0.2-3.1-2.1
			c1.4-1.7,3.6-0.9,5.2-1.9C54.3,42.7,55.3,39.5,57.7,38.3z"/>
		<path class="st59" d="M40.7,33c0,2.1,0.2,4.2-0.5,6.2c0.7,1,0.3,2.1-0.3,2.9c-4.3,4-8.3,4.7-12.6,2.3c-1.4-0.7-2.3-1.6-2.4-3.1
			c-0.3-1-0.7-1.9-1.2-2.9c0-1.7,0.2-3.5,0.2-5.4C29.5,33,35,33,40.7,33z"/>
		<path class="st67" d="M24.8,41.3c5.4,4.7,9,4.7,14.4,0.2c1-0.5,2.1-0.9,2.6,0.5c-3.3,5.9-10.4,7.1-17,3.1c-0.7-0.5-1.2-1-1.6-1.7
			c0-0.2-0.2-0.3-0.2-0.5C23.1,41.5,24.5,42,24.8,41.3z"/>
		<path class="st68" d="M21.7,61.2c-0.5-5.5,0.9-11.3-0.9-16.8c0.5-0.3,1-0.5,1.6-0.9c1,0.7,1.2,1.6,1.2,2.6c0,4.7,0.3,9.4-0.2,14
			c-0.2,0.5-0.5,0.9-0.9,1C22,61.4,21.9,61.2,21.7,61.2z"/>
		<path class="st69" d="M73.8,61.4c2.4-0.3,3.1,0.7,3.3,2.9c0.5,6.9,0.5,6.9-6.6,6.9c-3.3,0-6.6,0-10,0c-12.5,0-25.1,0-37.6,0
			c-1.9,0-4.3,0.3-4.2-2.4s-2.3-6.8,2.9-7.8v0.3c1,0.3,2.3,0.5,1.6,2.1c-1.9,3.6-1.6,4.7,2.4,4.7c14.7,0,29.3,0,44,0
			c4,0,4.3-0.7,3.1-4.7C72.4,62.6,72.8,61.9,73.8,61.4z"/>
		<path class="st70" d="M23.2,62.8c-0.5-0.5-1-0.9-1.6-1.4c0.3-0.2,0.5-0.2,0.9-0.3c0.3,0,0.5-0.2,0.9-0.2c0.3-0.3,0.9-0.5,1.2-0.7
			c1-0.5,2.3-0.5,3.3-0.5c13.3,0,26.5,0,39.8,0c1.2,0,2.3,0,3.5,0.5c0.7,0.2,1.4,0.5,1.9,1c0.2,0.2,0.5,0.2,0.7,0.3
			c-0.2,0.5-0.5,0.9-0.7,1.4c-1,1.6-2.8,1.6-4.5,1.7c-13.7,0-27.4,0-40.9,0C26,64.5,24.3,64.3,23.2,62.8z"/>
		<path class="st71" d="M57.7,38.3c-0.5,3.1-2.8,4.7-5.4,6.1c-6.4,1.2-8.8,0.3-10.9-3.6c-0.3-0.7-0.3-1.2,0.2-1.7
			c0-5.4,0-5.4,5.4-5.4c2.1,0,4.2,0.2,6.1,0C56.9,33.1,58.2,34.7,57.7,38.3z"/>
		<path class="st72" d="M41.6,39c1.9,5.2,6.1,5.7,10.7,5.4c-1.9,1.6-4.2,0.5-6.2,0.9c-2.8,0.9-4.3-0.2-4.5-3.1
			c-0.5-0.9-1.4-0.9-2.3-0.9c0.3-0.7,0.7-1.6,1-2.3C40.7,39,41.1,39,41.6,39z"/>
		<path class="st73" d="M23.2,62.8c16.6,0,33.3,0,49.9,0c3.6,0.3,2.3,3.1,2.3,5c0.2,2.3-1.7,2.1-3.3,2.1c-16.1,0-32.4,0-48.5,0
			c-1.9,0-3.6-0.2-3.5-2.8C20.3,64.8,19.6,62.4,23.2,62.8z"/>
	</g>
</g>
<g>
	<path class="st0" d="M26.9,88.3v-3.8c2.8-0.9,4.3-3,4.4-6.6v-1.7h4.5v2.5c0,0.6,0,1.3-0.2,1.9c3.3,0.5,5.6,3.1,5.6,7.3h-4.4
		c0-1.8-1-3.5-2.5-3.9C32.7,86.2,30.1,87.8,26.9,88.3z M42.5,88.8c3.4,0,5.2,1.9,5.2,4.7c0,2.7-1.8,4.7-5.2,4.7h-9.7
		c-3.4,0-5.2-2-5.2-4.7c0-2.7,1.7-4.7,5.2-4.7H42.5z M41.5,95c1.1,0,1.6-0.6,1.6-1.5c0-0.9-0.5-1.5-1.6-1.5h-7.6
		c-1.1,0-1.6,0.6-1.6,1.5c0,0.9,0.5,1.5,1.6,1.5H41.5z M47.3,79.9h2.2v3.9h-2.2v4.3h-4.5V75.8h4.5V79.9z"/>
	<path class="st0" d="M50.6,88.5v-3.5c2.9-0.6,4.7-2.4,4.7-4.9v0h-4.4v-3.5h13.2V80h-4.5v0c0,0.7-0.1,1.3-0.2,2
		c3.3,0.3,5.4,2.6,5.4,6.1h-4.2c-0.1-1.6-1.2-2.9-2.8-3.1C56.2,87,53.6,88.3,50.6,88.5z M51.7,89.2h20.1v9H51.7V89.2z M67.4,95.1
		v-2.8H56.2v2.8H67.4z M64.1,80.5h3.2v-4.7h4.5v12.5h-4.5v-4.2h-3.2V80.5z"/>
</g>
<g>
	<path class="st37" d="M27.3,88.1v-3.8c2.8-0.9,4.3-3,4.4-6.6V76h4.5v2.5c0,0.6,0,1.3-0.2,1.9c3.3,0.5,5.6,3.1,5.6,7.3h-4.4
		c0-1.8-1-3.5-2.5-3.9C33.1,86,30.5,87.6,27.3,88.1z M42.9,88.7c3.4,0,5.2,1.9,5.2,4.7c0,2.7-1.8,4.7-5.2,4.7h-9.7
		c-3.4,0-5.2-2-5.2-4.7c0-2.7,1.7-4.7,5.2-4.7H42.9z M41.9,94.8c1.1,0,1.6-0.6,1.6-1.5c0-0.9-0.5-1.5-1.6-1.5h-7.6
		c-1.1,0-1.6,0.6-1.6,1.5c0,0.9,0.5,1.5,1.6,1.5H41.9z M47.7,79.7h2.2v3.9h-2.2v4.3h-4.5V75.6h4.5V79.7z"/>
	<path class="st37" d="M51,88.3v-3.5c2.9-0.6,4.7-2.4,4.7-4.9v0h-4.4v-3.5h13.2v3.5H60v0c0,0.7-0.1,1.3-0.2,2
		c3.3,0.3,5.4,2.6,5.4,6.1H61c-0.1-1.6-1.2-2.9-2.8-3.1C56.6,86.8,54,88.1,51,88.3z M52.1,89h20.1v9H52.1V89z M67.8,94.9V92H56.6
		v2.8H67.8z M64.5,80.3h3.2v-4.7h4.5v12.5h-4.5v-4.2h-3.2V80.3z"/>
</g>
</svg>
