<?xml version="1.0" encoding="utf-8"?>
<!-- Generator: Adobe Illustrator 25.3.1, SVG Export Plug-In . SVG Version: 6.00 Build 0)  -->
<svg version="1.1" id="Layer_1" xmlns="http://www.w3.org/2000/svg" xmlns:xlink="http://www.w3.org/1999/xlink" x="0px" y="0px"
	 viewBox="0 0 75.7 76.4" style="enable-background:new 0 0 75.7 76.4;" xml:space="preserve">
<style type="text/css">
	.st0{fill:#FFFFFF;stroke:#000000;stroke-width:6;stroke-linecap:round;stroke-linejoin:round;stroke-miterlimit:10;}
	.st1{fill:#DED2C1;stroke:#000000;stroke-width:6;stroke-linecap:round;stroke-linejoin:round;stroke-miterlimit:10;}
	.st2{fill:#7A4243;stroke:#000000;stroke-width:6;stroke-linecap:round;stroke-linejoin:round;stroke-miterlimit:10;}
	.st3{fill:#814254;stroke:#000000;stroke-width:6;stroke-linecap:round;stroke-linejoin:round;stroke-miterlimit:10;}
	.st4{fill:#824152;stroke:#000000;stroke-width:6;stroke-linecap:round;stroke-linejoin:round;stroke-miterlimit:10;}
	.st5{fill:#894C54;stroke:#000000;stroke-width:6;stroke-linecap:round;stroke-linejoin:round;stroke-miterlimit:10;}
	.st6{fill:#727F84;stroke:#000000;stroke-width:6;stroke-linecap:round;stroke-linejoin:round;stroke-miterlimit:10;}
	.st7{fill:#FFFEFE;stroke:#000000;stroke-width:6;stroke-linecap:round;stroke-linejoin:round;stroke-miterlimit:10;}
	.st8{fill:#F5875C;stroke:#000000;stroke-width:6;stroke-linecap:round;stroke-linejoin:round;stroke-miterlimit:10;}
	.st9{fill:#F8B698;stroke:#000000;stroke-width:6;stroke-linecap:round;stroke-linejoin:round;stroke-miterlimit:10;}
	.st10{fill:#89352F;stroke:#000000;stroke-width:6;stroke-linecap:round;stroke-linejoin:round;stroke-miterlimit:10;}
	.st11{fill:#8B3531;stroke:#000000;stroke-width:6;stroke-linecap:round;stroke-linejoin:round;stroke-miterlimit:10;}
	.st12{fill:#807B73;stroke:#000000;stroke-width:6;stroke-linecap:round;stroke-linejoin:round;stroke-miterlimit:10;}
	.st13{fill:#8D4048;stroke:#000000;stroke-width:6;stroke-linecap:round;stroke-linejoin:round;stroke-miterlimit:10;}
	.st14{fill:#F4875C;stroke:#000000;stroke-width:6;stroke-linecap:round;stroke-linejoin:round;stroke-miterlimit:10;}
	.st15{fill:#E8606F;stroke:#000000;stroke-width:6;stroke-linecap:round;stroke-linejoin:round;stroke-miterlimit:10;}
	.st16{fill:#8D3F49;stroke:#000000;stroke-width:6;stroke-linecap:round;stroke-linejoin:round;stroke-miterlimit:10;}
	.st17{fill:#E8606E;stroke:#000000;stroke-width:6;stroke-linecap:round;stroke-linejoin:round;stroke-miterlimit:10;}
	.st18{fill:#753F46;stroke:#000000;stroke-width:6;stroke-linecap:round;stroke-linejoin:round;stroke-miterlimit:10;}
	.st19{fill:#8C352F;stroke:#000000;stroke-width:6;stroke-linecap:round;stroke-linejoin:round;stroke-miterlimit:10;}
	.st20{fill:#E0D5C3;stroke:#000000;stroke-width:6;stroke-linecap:round;stroke-linejoin:round;stroke-miterlimit:10;}
	.st21{fill:#827B70;stroke:#000000;stroke-width:6;stroke-linecap:round;stroke-linejoin:round;stroke-miterlimit:10;}
	.st22{fill:#E0D4C3;stroke:#000000;stroke-width:6;stroke-linecap:round;stroke-linejoin:round;stroke-miterlimit:10;}
	.st23{fill:#F6956B;stroke:#000000;stroke-width:6;stroke-linecap:round;stroke-linejoin:round;stroke-miterlimit:10;}
	.st24{fill:#FFFDFC;stroke:#000000;stroke-width:6;stroke-linecap:round;stroke-linejoin:round;stroke-miterlimit:10;}
	.st25{fill:#F5875B;stroke:#000000;stroke-width:6;stroke-linecap:round;stroke-linejoin:round;stroke-miterlimit:10;}
	.st26{fill:#FBBD85;stroke:#000000;stroke-width:6;stroke-linecap:round;stroke-linejoin:round;stroke-miterlimit:10;}
	.st27{fill:#F49484;stroke:#000000;stroke-width:6;stroke-linecap:round;stroke-linejoin:round;stroke-miterlimit:10;}
	.st28{fill:#D46767;stroke:#000000;stroke-width:6;stroke-linecap:round;stroke-linejoin:round;stroke-miterlimit:10;}
	.st29{fill:#79465F;stroke:#000000;stroke-width:6;stroke-linecap:round;stroke-linejoin:round;stroke-miterlimit:10;}
	.st30{fill:#734C66;stroke:#000000;stroke-width:6;stroke-linecap:round;stroke-linejoin:round;stroke-miterlimit:10;}
	.st31{fill:#D6D4D6;stroke:#000000;stroke-width:6;stroke-linecap:round;stroke-linejoin:round;stroke-miterlimit:10;}
	.st32{fill:#574833;stroke:#000000;stroke-width:6;stroke-linecap:round;stroke-linejoin:round;stroke-miterlimit:10;}
	.st33{fill:#4C483F;stroke:#000000;stroke-width:6;stroke-linecap:round;stroke-linejoin:round;stroke-miterlimit:10;}
	.st34{fill:#E9606E;stroke:#000000;stroke-width:6;stroke-linecap:round;stroke-linejoin:round;stroke-miterlimit:10;}
	.st35{fill:#8B3F59;stroke:#000000;stroke-width:6;stroke-linecap:round;stroke-linejoin:round;stroke-miterlimit:10;}
	.st36{fill:#81765D;stroke:#000000;stroke-width:6;stroke-linecap:round;stroke-linejoin:round;stroke-miterlimit:10;}
	.st37{fill:#FFFFFF;}
	.st38{fill:#DED2C1;}
	.st39{fill:#7A4243;}
	.st40{fill:#814254;}
	.st41{fill:#824152;}
	.st42{fill:#894C54;}
	.st43{fill:#727F84;}
	.st44{fill:#FFFEFE;}
	.st45{fill:#F5875C;}
	.st46{fill:#F8B698;}
	.st47{fill:#89352F;}
	.st48{fill:#8B3531;}
	.st49{fill:#807B73;}
	.st50{fill:#8D4048;}
	.st51{fill:#F4875C;}
	.st52{fill:#E8606F;}
	.st53{fill:#8D3F49;}
	.st54{fill:#E8606E;}
	.st55{fill:#753F46;}
	.st56{fill:#8C352F;}
	.st57{fill:#E0D5C3;}
	.st58{fill:#827B70;}
	.st59{fill:#E0D4C3;}
	.st60{fill:#F6956B;}
	.st61{fill:#FFFDFC;}
	.st62{fill:#F5875B;}
	.st63{fill:#FBBD85;}
	.st64{fill:#F49484;}
	.st65{fill:#D46767;}
	.st66{fill:#79465F;}
	.st67{fill:#734C66;}
	.st68{fill:#D6D4D6;}
	.st69{fill:#574833;}
	.st70{fill:#4C483F;}
	.st71{fill:#E9606E;}
	.st72{fill:#8B3F59;}
	.st73{fill:#81765D;}
	.st74{font-family:'JalnanGothic-KSCpc-EUC-H';}
	.st75{font-size:18px;}
</style>
<g>
	<rect x="13.3" y="17.7" class="st0" width="47.9" height="38.2"/>
	<g>
		<path class="st1" d="M9.4,4.6c1.2-1,2.5-1.2,4-1.2c15.8,0,31.6,0,47.3,0c1.7,0,3,0.3,4,1.7c1.6,3.8,0.9,5-3,5
			c-10.3,0-20.5,0-30.8,0c-6.3,0-12.5,0-18.8,0C8.2,10,7.3,8.4,9.4,4.6z"/>
		<path class="st2" d="M31.1,9.3c10.3,0,20.5,0,30.8,0c3.9,0,4-0.1,3-4.2c0.9,2.1,1.8,4.2,2.6,6.3c0.3,0.5,0.1,1.2,0.1,1.7
			c-1.8,0.7-1.8-1.4-3.1-1.7c-2.6-1.2-5.3-0.9-8-0.1c-3.9,0.5-8,0.5-11.9,0c-0.4,0-0.7-0.1-1-0.3c-2.6-0.8-5.3-0.3-8-0.4
			c-1.4-0.1-2.9,0.3-4.2-0.4C31.1,10,30.9,9.7,31.1,9.3z"/>
		<path class="st3" d="M7.5,32.8c-3.5-2.3-3.9-6-3.7-9.8c0.7-2.2,1.3-4.6,2-6.8c0.8-2.1,1.6-4.3,2.2-6.4c0.9,0,0.9,0.7,1,1.2
			c-0.4,4.2-1.7,8.1-3,12.1c-0.4,3,0.1,5.7,2.3,8.1c0.3,0.5,0.4,1,0.1,1.7C8.1,33.2,7.7,33.2,7.5,32.8z"/>
		<path class="st4" d="M71.5,24.7c-0.3,3.7-1,7-5.2,8.3c-0.3-0.1-0.4-0.4-0.4-0.8c0-1,0.8-1.7,1.4-2.3c2-2.2,2.3-4.7,1.4-7.4
			c-0.5-1.8-1.2-3.7-1.7-5.5c-0.3-1.2-0.8-2.5,0.3-3.5c0-0.7,0.1-1.3,0.1-2C69.2,15.7,70.7,20.1,71.5,24.7z"/>
		<path class="st5" d="M8.5,10.9c-0.3-0.4-0.4-0.8-0.5-1C8.1,8,7.3,5.9,9.4,4.6c-1.3,4.3-1,4.7,3.3,4.7c6.1,0,12.3,0,18.4,0.1
			c0,0.1,0,0.3,0,0.5c-0.1,0.1-0.3,0.3-0.4,0.4c-4.2,1-8.3,0.1-12.5,0.4c-2.7,0-5.5-0.3-8.2,0.5C9.4,11.3,8.9,11.3,8.5,10.9z"/>
		<path class="st6" d="M7.5,32.8c0.4,0.1,0.7,0.1,1,0.3c0.7,0,1,0.4,1.3,0.9c0.8,1.3,0.5,2.9,0.5,4.2c0.1,6.9-0.1,13.8,0.1,20.7
			c0.5,2,1.8,2.6,3.7,2.6c15.4,0,30.8,0,46.2,0c0.9,0,1.7-0.1,2.5-0.5c0.9-0.1,1.8-0.9,2.9-0.4c0,0.4,0,0.8,0,1.2l0,0
			c-0.5,0.9-1.4,1.3-2.3,1.7c-16.7,0-33.5,0-50.2,0c-2.5,0-5,0-5.2-3.5C7.7,50.9,8.4,41.9,7.5,32.8z"/>
		<path class="st7" d="M44.4,10.5c4.2,0,8.3-0.1,12.7-0.1c0.1,0.1,0.3,0.3,0.4,0.4c0.8,4.3,0.7,8.5,0.1,12.8
			c-0.3,0.4-0.5,0.7-0.8,0.8c-4.3,0.8-8.5,1.4-12.7-0.5C43.2,19.4,42.7,14.9,44.4,10.5z"/>
		<path class="st8" d="M67.3,13.5c0.9,3,1.7,6.1,2.6,9.1c0.3,1.6-0.9,2.1-2,2.2c-2.3,0.1-4.7,0.5-6.9-0.4c-0.5-0.9-0.5-2.2-2.2-2.3
			c-1.2-0.1-1.4-1.4-1.4-2.5c0-2,0.1-3.9,0-5.7c-0.3-2.3,0.8-3.4,3-3.5c1.8,0.1,3.5-0.3,5.3,0.3C66.7,11,66.6,12.4,67.3,13.5z"/>
		<path class="st9" d="M44.4,10.5c0,4.4,0,8.7,0.1,13.2c-0.1,0.3-0.5,0.5-0.8,0.7c-4.2,0.3-8.3,0.5-12.4-0.1c-0.8-0.5-1-1.3-0.8-2.2
			c0.1-0.3,0.3-0.5,0.7-0.8c0.3-0.1,0.7,0,0.9,0.1c3.1,2,6.7,0.7,9.9,0.8c0.5,0,0.7-0.8,0.7-1.4c0.1-3-0.4-6.1,0.3-9.1
			c0.1-0.4,0.3-0.7,0.4-0.9c0.1-0.1,0.3-0.3,0.4-0.3C43.9,10.4,44.1,10.4,44.4,10.5z"/>
		<path class="st10" d="M30.9,9.8c4.2,0.3,8.5-0.7,12.7,0.5v0.1c-1.6,1.3-3.4,0.7-5.2,0.8c-2.2,0.1-4.3,0.1-6.5-0.1
			c-0.4-0.1-0.7-0.3-0.9-0.4C30.8,10.4,30.8,10.1,30.9,9.8L30.9,9.8z"/>
		<path class="st11" d="M65.6,10.2c-2,0-3.9,0.1-5.7,0.1c-0.9,0.1-1.8,0.5-2.7,0L57,10.2C59.9,9.4,62.8,9.4,65.6,10.2z"/>
		<path class="st12" d="M65.6,60.6c-0.5,0.4-1.2,0.8-1.7,1.2c-0.5-0.3-0.9-0.7-0.8-1.2c0.7-2.1,0.8-4.3,0.8-6.5c0-5.5,0-11.1,0-16.6
			c0-1.3-0.1-2.7,0.8-3.8c0.4-0.4,0.9-0.5,1.4-0.1C65.9,42.4,66.7,51.6,65.6,60.6z"/>
		<path class="st13" d="M66,33.4c-0.4,0.1-0.8,0.1-1,0.3c-2.1,1.4-4,0.7-5.7-0.4c-1.3-0.8-2.6-1-4-1c-0.4-0.1-0.7-0.5-0.8-0.9
			c0.3-1.7,0.9-3.1,2.7-3.8c0.5,0,0.9,0.3,1.3,0.7c1.6,2.2,3.7,3.3,6.3,3.3c0.5,0,1,0.3,1.4,0.8c0,0.3,0.1,0.7,0.1,0.9
			C66.3,33.2,66.2,33.3,66,33.4z"/>
		<path class="st14" d="M8.5,10.9c0.1-0.1,0.4-0.3,0.5-0.4c2.7-0.9,5.5-0.1,8.2-0.4c0.4,0,0.7,0,1,0.1c0.7,0.5,0.8,1.3,0.8,2.1
			c-0.3,3.3-0.1,6.5-0.3,9.7c0,0.8-0.1,1.6-0.8,2.1c-3.7,1.4-7.6,0.8-11.3,0.5c-0.8,0-1.3-0.8-1.7-1.4C6.2,19.1,7.3,15.1,8.5,10.9z"
			/>
		<path class="st15" d="M5,23.1c4.3,1,8.6,0.3,12.9,0.5c0.4,0,0.7,0.1,0.8,0.4c0.7,1.3,0.5,2.5,0.1,3.8c-1.3,2-2.3,4.2-5,5
			c-2.1,0.7-4.2,0.7-6-1C4.9,29.5,4.6,26.5,5,23.1z"/>
		<path class="st16" d="M7.9,31.8c5.1,1.4,6.4,0.9,10.2-4c1,0.3,1.3,1,1.3,2s-0.7,1.4-1.3,2.1c-0.3,0.3-0.7,0.7-0.9,0.8
			c-0.4,0.1-0.9,0.5-1.3,0.9c-2.2,1.2-4.6,1.8-6.8,0.1c-0.1-0.1-0.4-0.4-0.5-0.5C8.2,32.7,8,32.1,7.9,31.8z"/>
		<path class="st17" d="M66.2,32.1c-4.2,1-7-0.8-9.1-4.3c-1.4-1.4-1.2-2.7-0.1-4.2H57c1-1,2.2-1.2,3.3-0.1c2.2,0,4.6,0,6.8,0
			c1,0,2.1,0.1,2.6-1C71,27.2,69.9,29.8,66.2,32.1z"/>
		<path class="st18" d="M18.2,10.5c-0.1-0.1-0.4-0.1-0.5-0.3c-0.1-0.1-0.3-0.3-0.1-0.3c0.1-0.1,0.1-0.1,0.3-0.1c4.4,0,8.9,0,13.3,0
			c0,0.1,0,0.4,0,0.5c-0.4,0.7-0.9,1-1.7,1c-3.3,0.3-6.5,0.3-9.8,0C18.9,11.3,18.6,10.9,18.2,10.5z"/>
		<path class="st19" d="M17.6,9.8c0,0.1,0,0.3-0.1,0.4c-2.9,0-5.7,0.1-8.5,0.1C11.9,9.1,14.8,10.1,17.6,9.8z"/>
		<path class="st20" d="M8.9,33.6c2.5,0.1,4.8,0.1,7-1.3c1,0.3,1.4,1,1.4,2c0,3.5,0.4,7-0.3,10.6c-0.4,0.8-1.2,1.2-1.6,2
			c-1.2,2.6,0,4.7,2.7,4.7c11.9,0,23.9,0,35.7,0c1.3,0,2.6,0,3-1.6c0.4-1.8,0.4-3.5-1.6-4.4c-0.3-0.1-0.5-0.4-0.8-0.8
			c-0.7-3.9-0.3-8-0.3-11.9c0.1-0.5,0.4-1,1-1.2c1-1,1.8-1.7,3.3-0.1c1.6,1.8,4,2,6.3,2c0,7.7,0,15.5,0,23.2c0,1.7-0.1,3.3-1.7,4.3
			c-1,0.8-2.2,0.7-3.3,0.7c-15.4,0-30.7,0-46,0c-2,0-4.2,0.4-5-2.2C8.9,50.8,8.9,42.2,8.9,33.6z"/>
		<path class="st21" d="M8.9,59.4c0.9,1.7,2.6,1.7,4.3,1.7c16.7,0,33.4,0,50.1,0c0.3,0.3,0.4,0.4,0.7,0.7c-1.3,0.4-2.6,0.7-3.9,0.7
			c-15.3,0-30.5,0-45.9,0c-1.4,0-2.7-0.1-3.9-0.8C9.3,61.2,8.2,60.7,8.9,59.4z"/>
		<path class="st22" d="M56.9,23.7c0,1.4,0,2.7,0.1,4.2c-0.5,1.3-1.3,2.5-2.3,3.5c-2.5,3-7.8,2.5-10-1c-0.5-0.8-0.9-1.7-1-2.6
			c0-1.3-0.4-2.7,0.7-3.9c0.1,0,0.3,0,0.4,0C48.7,23.7,52.7,23.7,56.9,23.7z"/>
		<path class="st23" d="M60.4,23.5c-1,0-2.2,0-3.3,0.1c0-4.4,0-8.7,0-13.2c0.9,0,1.8,0,2.7,0c-1.8,0.7-2.5,1.8-2.2,3.8
			c0.1,1.2,0.1,2.3,0,3.4c-0.5,2.9,0.8,4,3.7,3.7c0.8-0.1,2.2-0.5,2.2,0.9c0,1.2-1.3,0.7-2.1,0.9C61.1,23.3,60.8,23.4,60.4,23.5z"/>
		<path class="st24" d="M18.2,10.5c4.3,0,8.6-0.1,12.8-0.1v0.1c1.4,3.5,1.3,7.2,0.1,10.8c0,0.8,0,1.6,0,2.3
			c-0.1,0.1-0.3,0.3-0.4,0.4c-4.2,1-8.3,1.6-12.4-0.4H18C18,19.2,18,14.9,18.2,10.5z"/>
		<path class="st25" d="M43.6,11c0,3.4,0,6.8,0,10c-0.1,0.3-0.4,0.5-0.7,0.5c-3.8,0.5-7.7,1.2-11.3-0.4v-0.1c-0.7-3-0.1-6.1-0.3-9.1
			c0-0.7,0.1-1.4,1-1.4C36,10.9,39.8,10.2,43.6,11z"/>
		<path class="st26" d="M31.6,21.3c4,0,8-0.1,12-0.1c0,1.2-0.5,1.8-1.7,1.8c-2.7,0-5.6,0-8.3,0C32.4,23,31.7,22.5,31.6,21.3z"/>
		<path class="st27" d="M43.6,11c-3.1,0-6.3,0-9.4-0.1c-2-0.1-2.7,0.5-2.7,2.6c0.1,2.6,0,5.1,0,7.7c-0.1,0-0.4,0-0.5,0
			c0-3.7,0-7.2-0.1-10.8c4.3,0,8.5,0,12.8,0C43.7,10.6,43.6,10.9,43.6,11z"/>
		<path class="st28" d="M44.1,23.7c0,1.4,0.1,2.9,0.1,4.2c-0.3,0.1-0.5,0-0.8-0.1c-1.3-3-3.9-2.1-6.3-2.3c-2.7-0.3-4.6,0.5-5.5,3.1
			c-0.5,0.3-0.9,0.1-1.3-0.1c-0.9-1.7-0.7-3.3,0.7-4.7h0.1C35.4,23.7,39.7,23.7,44.1,23.7z"/>
		<path class="st29" d="M43.7,27.7c0.1,0,0.4,0.1,0.5,0.1c2.5,4.7,5.5,5.6,10.4,3.4c0.3,0.1,0.5,0.4,0.8,0.5c-0.1,0.4-0.1,0.7-0.3,1
			c-0.3,0.4-0.7,0.7-1,0.9c-2.6,1.3-5.2,1.2-7.7-0.3c-1.6-0.9-3-0.9-4.6,0c-1.4,0.9-3,1.2-4.7,1c-1-0.1-2.2-0.1-2.3-1.6
			c1-1.3,2.7-0.7,3.9-1.4C41.1,31,41.9,28.6,43.7,27.7z"/>
		<path class="st22" d="M30.9,23.7c0,1.6,0.1,3.1-0.4,4.7c0.5,0.8,0.3,1.6-0.3,2.2c-3.3,3-6.3,3.5-9.5,1.7c-1-0.5-1.7-1.2-1.8-2.3
			c-0.3-0.8-0.5-1.4-0.9-2.2c0-1.3,0.1-2.6,0.1-4C22.5,23.7,26.6,23.7,30.9,23.7z"/>
		<path class="st30" d="M18.9,29.9c4,3.5,6.8,3.5,10.8,0.1c0.8-0.4,1.6-0.7,2,0.4c-2.5,4.4-7.8,5.3-12.8,2.3
			c-0.5-0.4-0.9-0.8-1.2-1.3c0-0.1-0.1-0.3-0.1-0.4C17.6,30.1,18.7,30.4,18.9,29.9z"/>
		<path class="st31" d="M16.6,44.9c-0.4-4.2,0.7-8.5-0.7-12.7c0.4-0.3,0.8-0.4,1.2-0.7c0.8,0.5,0.9,1.2,0.9,2c0,3.5,0.3,7-0.1,10.6
			c-0.1,0.4-0.4,0.7-0.7,0.8C16.9,45.1,16.7,44.9,16.6,44.9z"/>
		<path class="st32" d="M55.9,45.1c1.8-0.3,2.3,0.5,2.5,2.2c0.4,5.2,0.4,5.2-5,5.2c-2.5,0-5,0-7.6,0c-9.4,0-18.9,0-28.3,0
			c-1.4,0-3.3,0.3-3.1-1.8c0.1-2.1-1.7-5.1,2.2-5.9v0.3c0.8,0.3,1.7,0.4,1.2,1.6c-1.4,2.7-1.2,3.5,1.8,3.5c11.1,0,22,0,33.1,0
			c3,0,3.3-0.5,2.3-3.5C54.8,46,55.1,45.4,55.9,45.1z"/>
		<path class="st33" d="M17.8,46.1c-0.4-0.4-0.8-0.7-1.2-1c0.3-0.1,0.4-0.1,0.7-0.3c0.3,0,0.4-0.1,0.7-0.1c0.3-0.3,0.7-0.4,0.9-0.5
			c0.8-0.4,1.7-0.4,2.5-0.4c10,0,20,0,30,0c0.9,0,1.7,0,2.6,0.4c0.5,0.1,1,0.4,1.4,0.8c0.1,0.1,0.4,0.1,0.5,0.3
			c-0.1,0.4-0.4,0.7-0.5,1c-0.8,1.2-2.1,1.2-3.4,1.3c-10.3,0-20.6,0-30.8,0C19.9,47.4,18.6,47.3,17.8,46.1z"/>
		<path class="st34" d="M43.7,27.7c-0.4,2.3-2.1,3.5-4,4.6c-4.8,0.9-6.7,0.3-8.2-2.7c-0.3-0.5-0.3-0.9,0.1-1.3c0-4,0-4,4-4
			c1.6,0,3.1,0.1,4.6,0C43.1,23.8,44.1,25,43.7,27.7z"/>
		<path class="st35" d="M31.6,28.2c1.4,3.9,4.6,4.3,8.1,4c-1.4,1.2-3.1,0.4-4.7,0.7c-2.1,0.7-3.3-0.1-3.4-2.3
			c-0.4-0.7-1-0.7-1.7-0.7c0.3-0.5,0.5-1.2,0.8-1.7C30.9,28.2,31.2,28.2,31.6,28.2z"/>
		<path class="st36" d="M17.8,46.1c12.5,0,25,0,37.6,0c2.7,0.3,1.7,2.3,1.7,3.8c0.1,1.7-1.3,1.6-2.5,1.6c-12.1,0-24.4,0-36.5,0
			c-1.4,0-2.7-0.1-2.6-2.1C15.6,47.7,15,45.8,17.8,46.1z"/>
	</g>
</g>
<g>
	<rect x="13.3" y="17.7" class="st37" width="47.9" height="38.2"/>
	<g>
		<path class="st38" d="M9.4,4.6c1.2-1,2.5-1.2,4-1.2c15.8,0,31.6,0,47.3,0c1.7,0,3,0.3,4,1.7c1.6,3.8,0.9,5-3,5
			c-10.3,0-20.5,0-30.8,0c-6.3,0-12.5,0-18.8,0C8.2,10,7.3,8.4,9.4,4.6z"/>
		<path class="st39" d="M31.1,9.3c10.3,0,20.5,0,30.8,0c3.9,0,4-0.1,3-4.2c0.9,2.1,1.8,4.2,2.6,6.3c0.3,0.5,0.1,1.2,0.1,1.7
			c-1.8,0.7-1.8-1.4-3.1-1.7c-2.6-1.2-5.3-0.9-8-0.1c-3.9,0.5-8,0.5-11.9,0c-0.4,0-0.7-0.1-1-0.3c-2.6-0.8-5.3-0.3-8-0.4
			c-1.4-0.1-2.9,0.3-4.2-0.4C31.1,10,30.9,9.7,31.1,9.3z"/>
		<path class="st40" d="M7.5,32.8c-3.5-2.3-3.9-6-3.7-9.8c0.7-2.2,1.3-4.6,2-6.8c0.8-2.1,1.6-4.3,2.2-6.4c0.9,0,0.9,0.7,1,1.2
			c-0.4,4.2-1.7,8.1-3,12.1c-0.4,3,0.1,5.7,2.3,8.1c0.3,0.5,0.4,1,0.1,1.7C8.1,33.2,7.7,33.2,7.5,32.8z"/>
		<path class="st41" d="M71.5,24.7c-0.3,3.7-1,7-5.2,8.3c-0.3-0.1-0.4-0.4-0.4-0.8c0-1,0.8-1.7,1.4-2.3c2-2.2,2.3-4.7,1.4-7.4
			c-0.5-1.8-1.2-3.7-1.7-5.5c-0.3-1.2-0.8-2.5,0.3-3.5c0-0.7,0.1-1.3,0.1-2C69.2,15.7,70.7,20.1,71.5,24.7z"/>
		<path class="st42" d="M8.5,10.9c-0.3-0.4-0.4-0.8-0.5-1C8.1,8,7.3,5.9,9.4,4.6c-1.3,4.3-1,4.7,3.3,4.7c6.1,0,12.3,0,18.4,0.1
			c0,0.1,0,0.3,0,0.5c-0.1,0.1-0.3,0.3-0.4,0.4c-4.2,1-8.3,0.1-12.5,0.4c-2.7,0-5.5-0.3-8.2,0.5C9.4,11.3,8.9,11.3,8.5,10.9z"/>
		<path class="st43" d="M7.5,32.8c0.4,0.1,0.7,0.1,1,0.3c0.7,0,1,0.4,1.3,0.9c0.8,1.3,0.5,2.9,0.5,4.2c0.1,6.9-0.1,13.8,0.1,20.7
			c0.5,2,1.8,2.6,3.7,2.6c15.4,0,30.8,0,46.2,0c0.9,0,1.7-0.1,2.5-0.5c0.9-0.1,1.8-0.9,2.9-0.4c0,0.4,0,0.8,0,1.2l0,0
			c-0.5,0.9-1.4,1.3-2.3,1.7c-16.7,0-33.5,0-50.2,0c-2.5,0-5,0-5.2-3.5C7.7,50.9,8.4,41.9,7.5,32.8z"/>
		<path class="st44" d="M44.4,10.5c4.2,0,8.3-0.1,12.7-0.1c0.1,0.1,0.3,0.3,0.4,0.4c0.8,4.3,0.7,8.5,0.1,12.8
			c-0.3,0.4-0.5,0.7-0.8,0.8c-4.3,0.8-8.5,1.4-12.7-0.5C43.2,19.4,42.7,14.9,44.4,10.5z"/>
		<path class="st45" d="M67.3,13.5c0.9,3,1.7,6.1,2.6,9.1c0.3,1.6-0.9,2.1-2,2.2c-2.3,0.1-4.7,0.5-6.9-0.4c-0.5-0.9-0.5-2.2-2.2-2.3
			c-1.2-0.1-1.4-1.4-1.4-2.5c0-2,0.1-3.9,0-5.7c-0.3-2.3,0.8-3.4,3-3.5c1.8,0.1,3.5-0.3,5.3,0.3C66.7,11,66.6,12.4,67.3,13.5z"/>
		<path class="st46" d="M44.4,10.5c0,4.4,0,8.7,0.1,13.2c-0.1,0.3-0.5,0.5-0.8,0.7c-4.2,0.3-8.3,0.5-12.4-0.1
			c-0.8-0.5-1-1.3-0.8-2.2c0.1-0.3,0.3-0.5,0.7-0.8c0.3-0.1,0.7,0,0.9,0.1c3.1,2,6.7,0.7,9.9,0.8c0.5,0,0.7-0.8,0.7-1.4
			c0.1-3-0.4-6.1,0.3-9.1c0.1-0.4,0.3-0.7,0.4-0.9c0.1-0.1,0.3-0.3,0.4-0.3S44.1,10.4,44.4,10.5z"/>
		<path class="st47" d="M30.9,9.8c4.2,0.3,8.5-0.7,12.7,0.5v0.1c-1.6,1.3-3.4,0.7-5.2,0.8c-2.2,0.1-4.3,0.1-6.5-0.1
			c-0.4-0.1-0.7-0.3-0.9-0.4C30.8,10.4,30.8,10.1,30.9,9.8L30.9,9.8z"/>
		<path class="st48" d="M65.6,10.2c-2,0-3.9,0.1-5.7,0.1c-0.9,0.1-1.8,0.5-2.7,0L57,10.2C59.9,9.4,62.8,9.4,65.6,10.2z"/>
		<path class="st49" d="M65.6,60.6c-0.5,0.4-1.2,0.8-1.7,1.2c-0.5-0.3-0.9-0.7-0.8-1.2c0.7-2.1,0.8-4.3,0.8-6.5c0-5.5,0-11.1,0-16.6
			c0-1.3-0.1-2.7,0.8-3.8c0.4-0.4,0.9-0.5,1.4-0.1C65.9,42.4,66.7,51.6,65.6,60.6z"/>
		<path class="st50" d="M66,33.4c-0.4,0.1-0.8,0.1-1,0.3c-2.1,1.4-4,0.7-5.7-0.4c-1.3-0.8-2.6-1-4-1c-0.4-0.1-0.7-0.5-0.8-0.9
			c0.3-1.7,0.9-3.1,2.7-3.8c0.5,0,0.9,0.3,1.3,0.7c1.6,2.2,3.7,3.3,6.3,3.3c0.5,0,1,0.3,1.4,0.8c0,0.3,0.1,0.7,0.1,0.9
			C66.3,33.2,66.2,33.3,66,33.4z"/>
		<path class="st51" d="M8.5,10.9c0.1-0.1,0.4-0.3,0.5-0.4c2.7-0.9,5.5-0.1,8.2-0.4c0.4,0,0.7,0,1,0.1c0.7,0.5,0.8,1.3,0.8,2.1
			c-0.3,3.3-0.1,6.5-0.3,9.7c0,0.8-0.1,1.6-0.8,2.1c-3.7,1.4-7.6,0.8-11.3,0.5c-0.8,0-1.3-0.8-1.7-1.4C6.2,19.1,7.3,15.1,8.5,10.9z"
			/>
		<path class="st52" d="M5,23.1c4.3,1,8.6,0.3,12.9,0.5c0.4,0,0.7,0.1,0.8,0.4c0.7,1.3,0.5,2.5,0.1,3.8c-1.3,2-2.3,4.2-5,5
			c-2.1,0.7-4.2,0.7-6-1C4.9,29.5,4.6,26.5,5,23.1z"/>
		<path class="st53" d="M7.9,31.8c5.1,1.4,6.4,0.9,10.2-4c1,0.3,1.3,1,1.3,2s-0.7,1.4-1.3,2.1c-0.3,0.3-0.7,0.7-0.9,0.8
			c-0.4,0.1-0.9,0.5-1.3,0.9c-2.2,1.2-4.6,1.8-6.8,0.1c-0.1-0.1-0.4-0.4-0.5-0.5C8.2,32.7,8,32.1,7.9,31.8z"/>
		<path class="st54" d="M66.2,32.1c-4.2,1-7-0.8-9.1-4.3c-1.4-1.4-1.2-2.7-0.1-4.2H57c1-1,2.2-1.2,3.3-0.1c2.2,0,4.6,0,6.8,0
			c1,0,2.1,0.1,2.6-1C71,27.2,69.9,29.8,66.2,32.1z"/>
		<path class="st55" d="M18.2,10.5c-0.1-0.1-0.4-0.1-0.5-0.3c-0.1-0.1-0.3-0.3-0.1-0.3c0.1-0.1,0.1-0.1,0.3-0.1c4.4,0,8.9,0,13.3,0
			c0,0.1,0,0.4,0,0.5c-0.4,0.7-0.9,1-1.7,1c-3.3,0.3-6.5,0.3-9.8,0C18.9,11.3,18.6,10.9,18.2,10.5z"/>
		<path class="st56" d="M17.6,9.8c0,0.1,0,0.3-0.1,0.4c-2.9,0-5.7,0.1-8.5,0.1C11.9,9.1,14.8,10.1,17.6,9.8z"/>
		<path class="st57" d="M8.9,33.6c2.5,0.1,4.8,0.1,7-1.3c1,0.3,1.4,1,1.4,2c0,3.5,0.4,7-0.3,10.6c-0.4,0.8-1.2,1.2-1.6,2
			c-1.2,2.6,0,4.7,2.7,4.7c11.9,0,23.9,0,35.7,0c1.3,0,2.6,0,3-1.6c0.4-1.8,0.4-3.5-1.6-4.4c-0.3-0.1-0.5-0.4-0.8-0.8
			c-0.7-3.9-0.3-8-0.3-11.9c0.1-0.5,0.4-1,1-1.2c1-1,1.8-1.7,3.3-0.1c1.6,1.8,4,2,6.3,2c0,7.7,0,15.5,0,23.2c0,1.7-0.1,3.3-1.7,4.3
			c-1,0.8-2.2,0.7-3.3,0.7c-15.4,0-30.7,0-46,0c-2,0-4.2,0.4-5-2.2C8.9,50.8,8.9,42.2,8.9,33.6z"/>
		<path class="st58" d="M8.9,59.4c0.9,1.7,2.6,1.7,4.3,1.7c16.7,0,33.4,0,50.1,0c0.3,0.3,0.4,0.4,0.7,0.7c-1.3,0.4-2.6,0.7-3.9,0.7
			c-15.3,0-30.5,0-45.9,0c-1.4,0-2.7-0.1-3.9-0.8C9.3,61.2,8.2,60.7,8.9,59.4z"/>
		<path class="st59" d="M56.9,23.7c0,1.4,0,2.7,0.1,4.2c-0.5,1.3-1.3,2.5-2.3,3.5c-2.5,3-7.8,2.5-10-1c-0.5-0.8-0.9-1.7-1-2.6
			c0-1.3-0.4-2.7,0.7-3.9c0.1,0,0.3,0,0.4,0C48.7,23.7,52.7,23.7,56.9,23.7z"/>
		<path class="st60" d="M60.4,23.5c-1,0-2.2,0-3.3,0.1c0-4.4,0-8.7,0-13.2c0.9,0,1.8,0,2.7,0c-1.8,0.7-2.5,1.8-2.2,3.8
			c0.1,1.2,0.1,2.3,0,3.4c-0.5,2.9,0.8,4,3.7,3.7c0.8-0.1,2.2-0.5,2.2,0.9c0,1.2-1.3,0.7-2.1,0.9C61.1,23.3,60.8,23.4,60.4,23.5z"/>
		<path class="st61" d="M18.2,10.5c4.3,0,8.6-0.1,12.8-0.1v0.1c1.4,3.5,1.3,7.2,0.1,10.8c0,0.8,0,1.6,0,2.3
			c-0.1,0.1-0.3,0.3-0.4,0.4c-4.2,1-8.3,1.6-12.4-0.4H18C18,19.2,18,14.9,18.2,10.5z"/>
		<path class="st62" d="M43.6,11c0,3.4,0,6.8,0,10c-0.1,0.3-0.4,0.5-0.7,0.5c-3.8,0.5-7.7,1.2-11.3-0.4v-0.1c-0.7-3-0.1-6.1-0.3-9.1
			c0-0.7,0.1-1.4,1-1.4C36,10.9,39.8,10.2,43.6,11z"/>
		<path class="st63" d="M31.6,21.3c4,0,8-0.1,12-0.1c0,1.2-0.5,1.8-1.7,1.8c-2.7,0-5.6,0-8.3,0C32.4,23,31.7,22.5,31.6,21.3z"/>
		<path class="st64" d="M43.6,11c-3.1,0-6.3,0-9.4-0.1c-2-0.1-2.7,0.5-2.7,2.6c0.1,2.6,0,5.1,0,7.7c-0.1,0-0.4,0-0.5,0
			c0-3.7,0-7.2-0.1-10.8c4.3,0,8.5,0,12.8,0C43.7,10.6,43.6,10.9,43.6,11z"/>
		<path class="st65" d="M44.1,23.7c0,1.4,0.1,2.9,0.1,4.2c-0.3,0.1-0.5,0-0.8-0.1c-1.3-3-3.9-2.1-6.3-2.3c-2.7-0.3-4.6,0.5-5.5,3.1
			c-0.5,0.3-0.9,0.1-1.3-0.1c-0.9-1.7-0.7-3.3,0.7-4.7h0.1C35.4,23.7,39.7,23.7,44.1,23.7z"/>
		<path class="st66" d="M43.7,27.7c0.1,0,0.4,0.1,0.5,0.1c2.5,4.7,5.5,5.6,10.4,3.4c0.3,0.1,0.5,0.4,0.8,0.5c-0.1,0.4-0.1,0.7-0.3,1
			c-0.3,0.4-0.7,0.7-1,0.9c-2.6,1.3-5.2,1.2-7.7-0.3c-1.6-0.9-3-0.9-4.6,0c-1.4,0.9-3,1.2-4.7,1c-1-0.1-2.2-0.1-2.3-1.6
			c1-1.3,2.7-0.7,3.9-1.4C41.1,31,41.9,28.6,43.7,27.7z"/>
		<path class="st59" d="M30.9,23.7c0,1.6,0.1,3.1-0.4,4.7c0.5,0.8,0.3,1.6-0.3,2.2c-3.3,3-6.3,3.5-9.5,1.7c-1-0.5-1.7-1.2-1.8-2.3
			c-0.3-0.8-0.5-1.4-0.9-2.2c0-1.3,0.1-2.6,0.1-4C22.5,23.7,26.6,23.7,30.9,23.7z"/>
		<path class="st67" d="M18.9,29.9c4,3.5,6.8,3.5,10.8,0.1c0.8-0.4,1.6-0.7,2,0.4c-2.5,4.4-7.8,5.3-12.8,2.3
			c-0.5-0.4-0.9-0.8-1.2-1.3c0-0.1-0.1-0.3-0.1-0.4C17.6,30.1,18.7,30.4,18.9,29.9z"/>
		<path class="st68" d="M16.6,44.9c-0.4-4.2,0.7-8.5-0.7-12.7c0.4-0.3,0.8-0.4,1.2-0.7c0.8,0.5,0.9,1.2,0.9,2c0,3.5,0.3,7-0.1,10.6
			c-0.1,0.4-0.4,0.7-0.7,0.8C16.9,45.1,16.7,44.9,16.6,44.9z"/>
		<path class="st69" d="M55.9,45.1c1.8-0.3,2.3,0.5,2.5,2.2c0.4,5.2,0.4,5.2-5,5.2c-2.5,0-5,0-7.6,0c-9.4,0-18.9,0-28.3,0
			c-1.4,0-3.3,0.3-3.1-1.8c0.1-2.1-1.7-5.1,2.2-5.9v0.3c0.8,0.3,1.7,0.4,1.2,1.6c-1.4,2.7-1.2,3.5,1.8,3.5c11.1,0,22,0,33.1,0
			c3,0,3.3-0.5,2.3-3.5C54.8,46,55.1,45.4,55.9,45.1z"/>
		<path class="st70" d="M17.8,46.1c-0.4-0.4-0.8-0.7-1.2-1c0.3-0.1,0.4-0.1,0.7-0.3c0.3,0,0.4-0.1,0.7-0.1c0.3-0.3,0.7-0.4,0.9-0.5
			c0.8-0.4,1.7-0.4,2.5-0.4c10,0,20,0,30,0c0.9,0,1.7,0,2.6,0.4c0.5,0.1,1,0.4,1.4,0.8c0.1,0.1,0.4,0.1,0.5,0.3
			c-0.1,0.4-0.4,0.7-0.5,1c-0.8,1.2-2.1,1.2-3.4,1.3c-10.3,0-20.6,0-30.8,0C19.9,47.4,18.6,47.3,17.8,46.1z"/>
		<path class="st71" d="M43.7,27.7c-0.4,2.3-2.1,3.5-4,4.6c-4.8,0.9-6.7,0.3-8.2-2.7c-0.3-0.5-0.3-0.9,0.1-1.3c0-4,0-4,4-4
			c1.6,0,3.1,0.1,4.6,0C43.1,23.8,44.1,25,43.7,27.7z"/>
		<path class="st72" d="M31.6,28.2c1.4,3.9,4.6,4.3,8.1,4c-1.4,1.2-3.1,0.4-4.7,0.7c-2.1,0.7-3.3-0.1-3.4-2.3
			c-0.4-0.7-1-0.7-1.7-0.7c0.3-0.5,0.5-1.2,0.8-1.7C30.9,28.2,31.2,28.2,31.6,28.2z"/>
		<path class="st73" d="M17.8,46.1c12.5,0,25,0,37.6,0c2.7,0.3,1.7,2.3,1.7,3.8c0.1,1.7-1.3,1.6-2.5,1.6c-12.1,0-24.4,0-36.5,0
			c-1.4,0-2.7-0.1-2.6-2.1C15.6,47.7,15,45.8,17.8,46.1z"/>
	</g>
</g>
<text transform="matrix(1 0 0 1 19.5955 71.3723)" class="st0 st74 st75">상점</text>
<text transform="matrix(1 0 0 1 19.5955 71.3723)" class="st37 st74 st75">상점</text>
<text transform="matrix(1 0 0 1 23.5687 -19.7297)" class="st75" style="font-family:'Galmuri11-Bold';">도감</text>
<text transform="matrix(1 0 0 1 53.1264 -19.7297)" class="st75" style="font-family:'Galmuri11-Bold';">여행</text>
<text transform="matrix(1 0 0 1 -18.6612 -38.2195)" class="st75" style="font-family:'Galmuri9-Regular';">상점</text>
<text transform="matrix(1 0 0 1 7.208 -38.2195)" class="st75" style="font-family:'Galmuri9-Regular';">도감</text>
<text transform="matrix(1 0 0 1 33.5346 -38.2195)" class="st75" style="font-family:'Galmuri9-Regular';">여행</text>
</svg>
